A police officer looks to talk down a young man lured by his lover's husband to the ledge of a high rise, where he has one hour to contemplate a fateful decision.

IMDB rating: (6.7/10 from 2,382 users)

CAST:

Charlie Hunnam...........Gavin Nichols
Patrick Wilson...........Joe
Liv Tyler................Shana
Terrence Howard..........Hollis Lucetti
Christopher Gorham.......Chris (as Chris Gorham)
Monica Acosta............Housekeeper
Jaqueline Fleming........Angela Lucetti
Jillian Batherson........Harper
Mike Pniewski............Lt. Markowitz
Katia Gomez..............Selena
Dean J. West.............Frank
Amber Gaiennie...........News Anchor
Melody Noel..............Girl with dog
Geraldine Singer.........Doctor
Sean Paul Braud..........Cop


Format                           : Matroska
File size                        : 721 MiB
Duration                         : 1h 40mn
Overall bit rate                 : 1 000 Kbps
Encoded date                     : UTC 2011-09-29 08:55:54
Writing application              : mkvmerge v4.9.1 ('Ich will') creado el Jul 11 2011 23:53:15
Writing library                  : libebml v1.2.1 + libmatroska v1.1.1

Video
ID                               : 1
Format                           : AVC
Format/Info                      : Advanced Video Codec
Format profile                   : Main@L3.0
Format settings, CABAC           : Yes
Format settings, ReFrames        : 4 frames
Muxing mode                      : Container profile=Unknown@3.0
Codec ID                         : V_MPEG4/ISO/AVC
Duration                         : 1h 40mn
Bit rate                         : 852 Kbps
Nominal bit rate                 : 867 Kbps
Width                            : 688 pixels
Height                           : 384 pixels
Display aspect ratio             : 16:9
Frame rate mode                  : Variable
Frame rate                       : 29.970 fps
Resolution                       : 8 bits
Colorimetry                      : 4:2:0
Scan type                        : Progressive
Bits/(Pixel*Frame)               : 0.108
Stream size                      : 614 MiB (85%)
Writing library                  : x264 core 112

Audio
ID                               : 2
Format                           : AC-3
Format/Info                      : Audio Coding 3
Codec ID                         : A_AC3
Duration                         : 1h 40mn
Bit rate mode                    : Constant
Bit rate                         : 128 Kbps
Channel(s)                       : 2 channels
Channel positions                : Front: L R
Sampling rate                    : 48.0 KHz
Stream size                      : 92.3 MiB (13%)

Text (subtitles)
ID                               : 3
Format                           : VobSub
Codec ID                         : S_VOBSUB
Codec ID/Info                    : The same subtitle format used on DVDs
Language                         : Spanish
Language                         : English

Recommended player :VLC media player....http://www.videolan.org/vlc/

SEED back for SPEED 	
